<?xml version="1.0" standalone="no"?><!DOCTYPE svg PUBLIC "-//W3C//DTD SVG 1.1//EN" "http://www.w3.org/Graphics/SVG/1.1/DTD/svg11.dtd"><svg t="1522757237284" class="icon" style="" viewBox="0 0 1024 1024" version="1.1" xmlns="http://www.w3.org/2000/svg" p-id="4622" xmlns:xlink="http://www.w3.org/1999/xlink" width="200" height="200"><defs><style type="text/css"></style></defs><path d="M61.6 961.5c-36.6-36.6-36.6-96 0-132.6l464.7-464.7L662 499.9 200.4 961.5c-38.4 38.3-100.5 38.3-138.8 0z" fill="#429BCF" p-id="4623"></path><path d="M65.2 965.1l531-531 65.8 65.8-465.2 465.2c-36.4 36.3-95.3 36.3-131.6 0z" fill="#1A7FC0" p-id="4624"></path><path d="M121.3 899.1m-34.3 0a34.3 34.3 0 1 0 68.6 0 34.3 34.3 0 1 0-68.6 0Z" fill="#3A3737" p-id="4625"></path><path d="M968.1 214.8L778.9 355.9 670.3 247.4 811.4 58.1C710.2-3.7 575.5 8.9 488.2 96.2l-15.5 15.5c-102.3 102.3-102.3 269.8 0 372.1l69.8 69.8c102.3 102.3 269.8 102.3 372.1 0L930 538c87.4-87.3 99.9-222 38.1-323.2z" fill="#83C6EF" p-id="4626"></path><path d="M365.763 560.132l100.762 100.762-12.657 12.657L353.106 572.79zM337.373 588.555l100.762 100.761-12.658 12.658-100.761-100.762zM311.824 614.037L412.586 714.8l-12.657 12.657-100.762-100.762z" fill="#FFB103" p-id="4627"></path><path d="M785.9 623.8c28.8-6.4 56.7-17.6 82.4-33.7L436.1 158c-16.1 25.7-27.3 53.6-33.7 82.4l383.5 383.4z" fill="#429BCF" p-id="4628"></path><path d="M365.748 560.073l52.255 52.255-12.657 12.657-52.255-52.255zM337.358 588.496l52.254 52.254-12.657 12.657-52.254-52.254zM311.81 614.12l52.254 52.254-12.657 12.657-52.255-52.254z" fill="#FFD96B" p-id="4629"></path></svg>