<?xml version="1.0" encoding="UTF-8"?>
<svg width="18px" height="19px" viewBox="0 0 18 19" version="1.1" xmlns="http://www.w3.org/2000/svg" xmlns:xlink="http://www.w3.org/1999/xlink">
    <!-- Generator: Sketch 46.2 (44496) - http://www.bohemiancoding.com/sketch -->
    <title>Shape</title>
    <desc>Created with Sketch.</desc>
    <defs></defs>
    <g id="Page-2" stroke="none" stroke-width="1" fill="none" fill-rule="evenodd">
        <g id="在线体验-copy" transform="translate(-914.000000, -857.000000)" fill-rule="nonzero" fill="#334D7A">
            <g id="Group-38" transform="translate(890.000000, 842.000000)">
                <g id="Group-37" transform="translate(24.000000, 15.000000)">
                    <g id="Group-49">
                        <path d="M7.19999691,0.141737778 C6.91595704,0.141737778 6.68571142,0.371983393 6.68571142,0.656023272 L6.68571142,4.25602173 C6.68571142,4.54003589 6.91595704,4.77030722 7.19999691,4.77030722 C7.48403679,4.77030722 7.71428241,4.54003589 7.71428241,4.25602173 L7.71428241,0.656023272 C7.71428241,0.371983393 7.48403679,0.141737778 7.19999691,0.141737778 Z M2.77230738,2.44798679 C2.57212403,2.46747812 2.40166881,2.60186623 2.33600073,2.79197406 C2.27033264,2.9820819 2.32150178,3.1930247 2.46697609,3.33191498 L4.00983257,4.87477146 C4.13956193,5.00842779 4.33141503,5.06150215 4.51139208,5.0135232 C4.69136914,4.96554425 4.83134283,4.82401027 4.8773238,4.64351242 C4.92330477,4.46301458 4.86810699,4.27176159 4.73302083,4.14352178 L3.19016435,2.6006653 C3.08123094,2.48905146 2.92753737,2.4328942 2.77230738,2.44798679 L2.77230738,2.44798679 Z M11.3544466,2.69709383 C11.3328707,2.69841457 11.3113996,2.70109417 11.2901609,2.70511668 C11.176825,2.7214938 11.0721957,2.77522471 10.9928524,2.85779519 L9.44999595,4.40065167 C9.31510289,4.5289382 9.26005622,4.72010051 9.3060666,4.9004796 C9.35207699,5.08085869 9.49196248,5.22229847 9.67182218,5.27029912 C9.85168187,5.31829978 10.0434407,5.26536869 10.1732099,5.13190135 L11.7160664,3.58904487 C11.8732764,3.44379817 11.9241043,3.21637387 11.8436873,3.01801894 C11.7632703,2.81966401 11.5684188,2.69184304 11.3544466,2.69708097 L11.3544466,2.69709383 Z M6.00268886,6.14441378 L10.5428526,17.9569036 L12.334829,14.6542393 L15.8142789,18.1417378 L17.9999923,15.9560244 L14.5124938,12.4765488 L17.8151581,10.6845981 L6.00268886,6.14441378 Z M0.514285494,6.8274492 C0.230245616,6.8274492 0,7.05769481 0,7.34173469 C0,7.62577457 0.230245616,7.85602019 0.514285494,7.85602019 L4.11428395,7.85602019 C4.39832383,7.85602019 4.62856944,7.62577457 4.62856944,7.34173469 C4.62856944,7.05769481 4.39832383,6.8274492 4.11428395,6.8274492 L0.514285494,6.8274492 Z M4.62856944,9.38281296 C4.60699468,9.38411671 4.58552354,9.38677914 4.56428376,9.39078439 C4.45094953,9.40715801 4.34632039,9.46088429 4.26697531,9.54345003 L2.72411883,11.0863065 C2.58912698,11.2145673 2.5340014,11.405774 2.5799939,11.5862133 C2.6259864,11.7666526 2.76591347,11.9081419 2.94583099,11.9561349 C3.12574851,12.0041279 3.31755543,11.9511286 3.44730709,11.8175691 L4.99016358,10.2747126 C5.14735955,10.1294672 5.19818222,9.90205606 5.11777332,9.70370991 C5.03736442,9.50536376 4.84253097,9.37754081 4.62856944,9.38276153 L4.62856944,9.38281296 Z" id="Shape"></path>
                    </g>
                </g>
            </g>
        </g>
    </g>
</svg>