<svg width="68" height="68" viewBox="0 0 68 68" xmlns="http://www.w3.org/2000/svg"><title>Group 82</title><defs><linearGradient x1="-25.12%" y1="50%" x2="81.064%" y2="68.932%" id="a"><stop stop-color="#FFF" stop-opacity=".2" offset="0%"/><stop stop-color="#005EFF" offset="100%"/></linearGradient><linearGradient x1="24.627%" y1="-82.041%" x2="137.531%" y2="50%" id="b"><stop stop-color="#11A110FF" stop-opacity=".116" offset="0%"/><stop stop-color="#005EFF" offset="100%"/></linearGradient></defs><g fill="none" fill-rule="evenodd"><circle cx="34" cy="34" r="34" fill="#B7D1FF" opacity=".2"/><g transform="translate(12 24)" fill-rule="nonzero"><circle fill="url(#a)" cx="32.108" cy="7.297" r="7.135"/><circle fill="url(#a)" cx="11.27" cy="7.378" r="7.135"/><path d="M32.108 12.243c-4.135 0-7.865 1.784-10.378 4.703 2.189 2.432 3.486 5.676 3.486 9.243 0 1.135-.162 2.19-.405 3.162 9.892-.81 17.675-5.513 18.567-11.432a14.047 14.047 0 0 0-11.27-5.676z" fill="url(#a)"/><path d="M21.73 16.946c-2.595-2.838-6.244-4.703-10.379-4.703-4.621 0-8.675 2.19-11.189 5.676.811 5.919 8.514 10.622 18.487 11.513-.244-1.054-.406-2.108-.406-3.162-.08-3.648 1.298-6.892 3.487-9.324z" fill="url(#a)"/><path d="M21.73 16.946c-2.19 2.432-3.487 5.676-3.487 9.243 0 1.135.162 2.19.406 3.162 1.054.081 2.108.163 3.162.163 1.054 0 2.108-.082 3.08-.163.244-1.054.406-2.108.406-3.162a14.651 14.651 0 0 0-3.567-9.243z" fill="url(#b)"/><path d="M21.73 16.946c-2.19 2.432-3.487 5.676-3.487 9.243 0 1.135.162 2.19.406 3.162 1.054.081 2.108.163 3.162.163 1.054 0 2.108-.082 3.08-.163.244-1.054.406-2.108.406-3.162a14.651 14.651 0 0 0-3.567-9.243z" fill="url(#b)"/></g></g></svg>