<svg width="666" height="481" viewBox="0 0 666 481" fill="none" xmlns="http://www.w3.org/2000/svg">
    <rect y="32.0186" width="666" height="448.269" fill="#E3EDFD"/>
    <path d="M0 12C0 5.37257 5.37258 0 12 0H654C660.627 0 666 5.37258 666 12V186.352H0V12Z" fill="url(#paint0_lineartt)"/>
    <mask id="mask0mask0" mask-type="alpha" maskUnits="userSpaceOnUse" x="0" y="0" width="666" height="187">
    <path d="M0 12C0 5.37257 5.37258 0 12 0H654C660.627 0 666 5.37258 666 12V186.352H0V12Z" fill="white"/>
    </mask>
    <g mask="url(#mask0mask0)">
    <path d="M35.2205 234.7C64.8319 234.7 88.6926 210.537 88.6926 180.908C88.6926 151.279 64.8319 127.116 35.2205 127.116C5.60904 127.116 -18.2517 151.279 -18.2517 180.908C-18.2517 210.537 5.60904 234.7 35.2205 234.7Z" stroke="#5185FF" stroke-width="22.4135"/>
    <path d="M152.684 -6.68909L142.154 -10.522L138.321 0.00886907L111.142 74.6829L107.309 85.2138L117.839 89.0468L192.514 116.226L203.044 120.059L206.877 109.528L234.057 34.8539L237.889 24.323L227.359 20.4901L152.684 -6.68909Z" stroke="#5185FF" stroke-width="22.4135"/>
    <path d="M600.067 272.989L613.836 131.69L736.242 203.604L600.067 272.989Z" stroke="#3E77FC" stroke-width="22.4135"/>
    <path d="M474.844 212.926C492.527 212.926 506.863 198.591 506.863 180.907C506.863 163.223 492.527 148.888 474.844 148.888C457.16 148.888 442.825 163.223 442.825 180.907C442.825 198.591 457.16 212.926 474.844 212.926Z" stroke="#3E77FC" stroke-width="22.4135"/>
    <path d="M573.143 66.2788C595.248 66.2788 613.168 48.3595 613.168 26.2548C613.168 4.15014 595.248 -13.7692 573.143 -13.7692C551.039 -13.7692 533.119 4.15014 533.119 26.2548C533.119 48.3595 551.039 66.2788 573.143 66.2788Z" stroke="#3E77FC" stroke-width="22.4135"/>
    </g>
    <g filter="url(#filter0_dopop)">
    <rect x="183" y="65" width="299.7" height="381.285" rx="11" fill="white"/>
    </g>
    <path d="M0 12C0 5.37258 5.37258 0 12 0H654C660.627 0 666 5.37258 666 12V32.0192H0V12Z" fill="url(#paint1_linear3bhf)"/>
    <path fill-rule="evenodd" clip-rule="evenodd" d="M17.291 21.1319C20.1204 21.1319 22.4141 18.8382 22.4141 16.0088C22.4141 13.1794 20.1204 10.8857 17.291 10.8857C14.4616 10.8857 12.168 13.1794 12.168 16.0088C12.168 18.8382 14.4616 21.1319 17.291 21.1319Z" fill="#707495"/>
    <path fill-rule="evenodd" clip-rule="evenodd" d="M32.6602 21.1319C35.4896 21.1319 37.7833 18.8382 37.7833 16.0088C37.7833 13.1794 35.4896 10.8857 32.6602 10.8857C29.8308 10.8857 27.5371 13.1794 27.5371 16.0088C27.5371 18.8382 29.8308 21.1319 32.6602 21.1319Z" fill="#707495"/>
    <path fill-rule="evenodd" clip-rule="evenodd" d="M48.0293 21.1319C50.8587 21.1319 53.1524 18.8382 53.1524 16.0088C53.1524 13.1794 50.8587 10.8857 48.0293 10.8857C45.1999 10.8857 42.9062 13.1794 42.9062 16.0088C42.9062 18.8382 45.1999 21.1319 48.0293 21.1319Z" fill="#707495"/>
    <defs>
    <linearGradient id="paint0_lineartt" x1="1329.57" y1="109.219" x2="1216.79" y2="-342.556" gradientUnits="userSpaceOnUse">
        <stop stop-color="#4779FF"/>
        <stop offset="1" stop-color="#629CFF"/>
    </linearGradient>
    <linearGradient id="paint1_linear3bhf" x1="666" y1="32.0192" x2="666" y2="0" gradientUnits="userSpaceOnUse">
        <stop stop-color="#51516D"/>
        <stop offset="1" stop-color="#575672"/>
    </linearGradient>
    <filter id="filter0_dopop" x="180" y="64" width="305.7" height="387.285" filterUnits="userSpaceOnUse" color-interpolation-filters="sRGB">
        <feFlood flood-opacity="0" result="BackgroundImageFix"/>
        <feColorMatrix in="SourceAlpha" type="matrix" values="0 0 0 0 0 0 0 0 0 0 0 0 0 0 0 0 0 0 127 0"/>
        <feOffset dy="2"/>
        <feGaussianBlur stdDeviation="1.5"/>
        <feColorMatrix type="matrix" values="0 0 0 0 0.172549 0 0 0 0 0.278431 0 0 0 0 0.572549 0 0 0 0.2 0"/>
        <feBlend mode="normal" in2="BackgroundImageFix" result="effect1_dropShadow"/>
        <feBlend mode="normal" in="SourceGraphic" in2="effect1_dropShadow" result="shape"/>
    </filter>
    </defs>
</svg>