<?xml version="1.0" encoding="utf-8"?>
<!-- Generator: Adobe Illustrator 23.0.2, SVG Export Plug-In . SVG Version: 6.00 Build 0)  -->
<svg version="1.1" id="图层_1" xmlns="http://www.w3.org/2000/svg" xmlns:xlink="http://www.w3.org/1999/xlink" x="0px" y="0px"
	 viewBox="0 0 575.3 226.77" style="enable-background:new 0 0 575.3 226.77;" xml:space="preserve">
<style type="text/css">
	.st0{fill:url(#SVGID_1_);}
	.st1{fill:url(#SVGID_2_);}
	.st2{fill:#405060;}
</style>
<g>
	<radialGradient id="SVGID_1_" cx="27.585" cy="-108.4739" r="468.5743" gradientUnits="userSpaceOnUse">
		<stop  offset="0" style="stop-color:#2961DF"/>
		<stop  offset="1" style="stop-color:#3F51B5"/>
	</radialGradient>
	<path class="st0" d="M0,113.39c0,40.7,21.45,76.38,53.65,96.38c7.51,4.66,17.22-0.86,17.22-9.7v-13.05V39.75V26.7
		c0-8.84-9.71-14.36-17.22-9.7C21.45,37,0,72.69,0,113.39z"/>
	<radialGradient id="SVGID_2_" cx="27.585" cy="-108.4739" r="468.5743" gradientUnits="userSpaceOnUse">
		<stop  offset="0" style="stop-color:#2961DF"/>
		<stop  offset="1" style="stop-color:#3F51B5"/>
	</radialGradient>
	<path class="st1" d="M113.39,0L113.39,0c-7.83,0.01-14.17,6.35-14.17,14.18v15.36v167.68v15.36c0,7.83,6.34,14.18,14.17,14.18l0,0
		c62.62,0,113.39-50.76,113.39-113.39S176.01,0,113.39,0z M127.56,186.48V40.29c0-5.75,5.58-9.82,11.08-8.11
		c34.63,10.75,59.79,43.03,59.79,81.21s-25.16,70.45-59.79,81.21C133.14,196.3,127.56,192.23,127.56,186.48z"/>
</g>
<g>
	<path class="st2" d="M562.23,160.69c10.25-9.94,13.07-26.71,13.07-43.16c0-31.7-9.34-52.06-46.51-52.08l-34.27-0.02
		c-0.68,0-1.23,0.55-1.23,1.23l-0.06,104.36c0,0.68,0.55,1.23,1.23,1.23l34.13,0.02C544.83,172.29,551.97,170.64,562.23,160.69z
		 M513.89,153.95l0.04-70.17c0-0.68,0.55-1.23,1.23-1.23l5.82,0.01c10.34,0.01,19.47,0.62,25.96,6.81
		c6.51,6.22,8.54,17.49,8.53,28.51c-0.01,11.37-2.21,22.44-8.43,29.12c-6.23,6.7-15.17,8.2-26.03,8.19l-5.89-0.01
		C514.44,155.18,513.89,154.63,513.89,153.95z"/>
	<path class="st2" d="M478.42,82.52c0.68,0,1.23-0.55,1.23-1.23l0.01-12.37c0-1.93-1.51-3.49-3.38-3.49l-51.31-0.03
		c-0.68,0-1.23,0.55-1.23,1.23l-0.01,14.63c0,0.68,0.55,1.23,1.23,1.23l13.01,0.01c1.87,0,3.39,1.57,3.38,3.49l-0.04,65.65
		c0,1.93-1.52,3.49-3.39,3.49l-13.01-0.01c-0.68,0-1.23,0.55-1.23,1.23l-0.01,14.63c0,0.68,0.55,1.23,1.23,1.23l53.46,0.03
		c0.68,0,1.23-0.55,1.23-1.23l0.01-12.37c0-1.93-1.51-3.49-3.38-3.49l-13.01-0.01c-0.68,0-1.23-0.55-1.23-1.23l0.04-70.17
		c0-0.68,0.55-1.23,1.23-1.23L478.42,82.52z"/>
	<path class="st2" d="M408.25,172.83c0.68,0,1.23-0.55,1.23-1.23l0.01-13.58c0-1.93-1.51-3.49-3.38-3.49l-27.6-0.02
		c-0.68,0-1.23-0.55-1.23-1.23l0.01-11.61c0-0.68,0.55-1.23,1.23-1.23l23.54,0.01c0.68,0,1.23-0.55,1.23-1.23l0.01-10.43
		c0-1.93-1.51-3.49-3.38-3.49l-21.39-0.01c-0.68,0-1.23-0.55-1.23-1.23l0.01-12.1c0-0.68,0.55-1.23,1.23-1.23l23.54,0.01
		c0.68,0,1.23-0.55,1.23-1.23l0.01-9.97c0-1.93-1.51-3.49-3.38-3.49l-21.39-0.01c-0.68,0-1.23-0.55-1.23-1.23l0.01-10.52
		c0-0.68,0.55-1.23,1.23-1.23l23.54,0.01c0.68,0,1.23-0.55,1.23-1.23l0.01-13.06c0-1.93-1.51-3.49-3.38-3.49l-21.39-0.01
		c-0.68,0-1.23-0.55-1.23-1.23v-6.82c0-0.68-0.55-1.23-1.23-1.23l-12.68-0.01c-0.68,0-1.23,0.55-1.23,1.23v6.82
		c0,0.68-0.55,1.23-1.23,1.23l-17.36-0.01l0.01-0.02h-1.27l0.13-0.4c0.78-2.44,1.52-4.88,2.21-7.29c0.22-0.79-0.37-1.57-1.19-1.57
		l-11.75-0.01c-1.53,0-2.89,1.06-3.27,2.59c-1.31,5.2-5.98,17.16-15.37,32.75l-0.55,0.92l0.01-20.14c0-1.93-1.51-3.49-3.38-3.49
		l-34.16-0.02c-3.19,0-5.77,2.58-5.78,5.77l-0.05,88.23c0,3.19,2.58,5.78,5.77,5.78l31.77,0.02c3.19,0,5.77-2.58,5.78-5.77
		l0.01-20.5c0.01-10.94,3.78-21.69,9.13-31.13c1.1-1.95,2.08-3.69,2.76-4.92l0.56-1.01l-0.04,66.54c0,0.68,0.55,1.23,1.23,1.23
		L408.25,172.83z M340.39,84.24c0-0.68,0.55-1.23,1.23-1.23l17.16,0.01c1.87,0,3.39,1.57,3.38,3.49v8.26c0,0.68-0.55,1.23-1.23,1.23
		h-19.31c-0.68,0-1.23-0.55-1.23-1.23L340.39,84.24z M340.38,111.92c0-0.68,0.55-1.23,1.23-1.23l17.16,0.01
		c1.87,0,3.39,1.57,3.38,3.49l-0.01,9.85c0,0.68-0.55,1.23-1.23,1.23l-19.31-0.01c-0.68,0-1.23-0.55-1.23-1.23L340.38,111.92z
		 M340.36,141.65c0-0.68,0.55-1.23,1.23-1.23l17.16,0.01c1.87,0,3.39,1.57,3.38,3.49l-0.01,9.35c0,0.68-0.55,1.23-1.23,1.23
		l-19.31-0.01c-0.68,0-1.23-0.55-1.23-1.23L340.36,141.65z M295.93,151.09h-10.62c-0.68,0-1.23-0.55-1.23-1.23l0.04-63.46
		c0-0.68,0.55-1.23,1.23-1.23h8.47c1.87,0,3.39,1.57,3.38,3.49l-0.04,61.2C297.16,150.54,296.61,151.09,295.93,151.09z"/>
</g>
</svg>
