<svg id="图层_1" data-name="图层 1" xmlns="http://www.w3.org/2000/svg" xmlns:xlink="http://www.w3.org/1999/xlink" viewBox="0 0 236.34 95.72"><defs><style>.cls-1{fill:#405060;}.cls-2{fill:url(#未命名的渐变_8);}</style><linearGradient id="未命名的渐变_8" x1="31.44" y1="21.22" x2="70.77" y2="89.88" gradientUnits="userSpaceOnUse"><stop offset="0" stop-color="#00f2fe"/><stop offset="1" stop-color="#1890ff"/></linearGradient></defs><title>LOGO-SVG-深色-20200509</title><path class="cls-1" d="M230.61,66.85c4.06-3.95,5.18-10.6,5.18-17.13,0-12.57-3.7-20.65-18.45-20.66h-13.6a.49.49,0,0,0-.49.49l0,41.41a.49.49,0,0,0,.49.49h13.54C223.71,71.45,226.54,70.8,230.61,66.85Zm-19.18-2.68,0-27.84a.48.48,0,0,1,.48-.49h2.32c4.1,0,7.72.25,10.29,2.71s3.39,6.94,3.39,11.31-.88,8.9-3.35,11.55-6,3.26-10.32,3.25h-2.34A.49.49,0,0,1,211.43,64.17Z"/><path class="cls-1" d="M197.36,35.83a.48.48,0,0,0,.49-.48V30.44a1.36,1.36,0,0,0-1.34-1.39H176.15a.49.49,0,0,0-.49.49v5.8a.49.49,0,0,0,.49.49h5.16a1.38,1.38,0,0,1,1.34,1.39V63.26a1.37,1.37,0,0,1-1.35,1.38h-5.16a.49.49,0,0,0-.49.49v5.8a.49.49,0,0,0,.49.49h21.21a.48.48,0,0,0,.49-.48V66a1.36,1.36,0,0,0-1.34-1.39h-5.17a.49.49,0,0,1-.49-.49l0-27.84a.49.49,0,0,1,.49-.49Z"/><path class="cls-1" d="M169.52,71.66a.47.47,0,0,0,.48-.48V65.79a1.36,1.36,0,0,0-1.34-1.39H157.72a.49.49,0,0,1-.49-.49V59.3a.49.49,0,0,1,.49-.49h9.34a.49.49,0,0,0,.49-.49V54.19a1.36,1.36,0,0,0-1.34-1.39h-8.49a.49.49,0,0,1-.49-.49v-4.8a.49.49,0,0,1,.49-.49h9.33a.49.49,0,0,0,.49-.49v-4a1.37,1.37,0,0,0-1.35-1.39h-8.48a.49.49,0,0,1-.49-.49V36.53a.49.49,0,0,1,.49-.49h9.34a.49.49,0,0,0,.49-.49V30.37A1.36,1.36,0,0,0,166.22,29h-8.48a.49.49,0,0,1-.49-.49v-2.7a.49.49,0,0,0-.49-.49h-5a.48.48,0,0,0-.49.48v2.71a.49.49,0,0,1-.49.49h-7.39l0-.16c.31-1,.61-1.93.88-2.89a.49.49,0,0,0-.47-.62h-4.66a1.35,1.35,0,0,0-1.3,1c-.52,2.07-2.37,6.81-6.1,13l-.22.36v-8a1.36,1.36,0,0,0-1.34-1.38H116.65a2.28,2.28,0,0,0-2.29,2.29l0,35a2.29,2.29,0,0,0,2.29,2.29h12.61a2.29,2.29,0,0,0,2.29-2.29V59.46a25.5,25.5,0,0,1,3.62-12.35l1.09-2,.22-.4v26.4a.49.49,0,0,0,.49.49ZM142.59,36.52a.5.5,0,0,1,.49-.49h6.81a1.36,1.36,0,0,1,1.34,1.39V40.7a.49.49,0,0,1-.49.49h-7.66a.49.49,0,0,1-.49-.49Zm0,11a.49.49,0,0,1,.49-.49h6.8a1.37,1.37,0,0,1,1.35,1.39v3.9a.48.48,0,0,1-.48.49h-7.67a.48.48,0,0,1-.48-.49Zm0,11.79a.49.49,0,0,1,.49-.49h6.81a1.36,1.36,0,0,1,1.34,1.38V63.9a.49.49,0,0,1-.49.49h-7.66a.49.49,0,0,1-.49-.49ZM125,63h-4.21a.49.49,0,0,1-.49-.49l0-25.18a.49.49,0,0,1,.49-.49h3.36a1.36,1.36,0,0,1,1.34,1.39l0,24.28A.49.49,0,0,1,125,63Z"/><path class="cls-2" d="M48.87.05A.85.85,0,0,0,48,.91V87.08a1.27,1.27,0,0,1-1.27,1.27h0a40.21,40.21,0,0,1-13-2.16,1.41,1.41,0,0,1-1-1.34v-74a1.42,1.42,0,0,1,1-1.34A40.67,40.67,0,0,1,39.83,7.9,1.42,1.42,0,0,0,41,6.51V1.3a.86.86,0,0,0-1-.85A47.9,47.9,0,0,0,.43,35.55a.86.86,0,0,0,.83,1.07H6.7a1.4,1.4,0,0,0,1.34-1A40.47,40.47,0,0,1,20,17.41a.85.85,0,0,1,1.42.63v59.6a.85.85,0,0,1-1.42.64A40.57,40.57,0,0,1,8.06,60.08a1.4,1.4,0,0,0-1.34-1H1.28a.85.85,0,0,0-.83,1.07c7,26.36,35.92,43.79,66.08,31.53A43.47,43.47,0,0,0,90.46,67.84C104.37,33.91,80.66,1.48,48.87.05ZM65.72,83.6a1.43,1.43,0,0,1-2.1-1.26v-69a1.43,1.43,0,0,1,2.09-1.26,40.51,40.51,0,0,1,0,71.53Z"/></svg>