<?xml version="1.0" standalone="no"?><!DOCTYPE svg PUBLIC "-//W3C//DTD SVG 1.1//EN" "http://www.w3.org/Graphics/SVG/1.1/DTD/svg11.dtd"><svg t="1522757232721" class="icon" style="" viewBox="0 0 1024 1024" version="1.1" xmlns="http://www.w3.org/2000/svg" p-id="4494" xmlns:xlink="http://www.w3.org/1999/xlink" width="200" height="200"><defs><style type="text/css"></style></defs><path d="M656.2 61.7H174.9v948h694V261.9H656.2z" fill="#83C6EF" p-id="4495"></path><path d="M444 72.5c-3.8 0-7.4-2.2-9-5.9-2.6-6.1-6.2-11.6-10.6-16.4-3.7-4-3.5-10.1 0.5-13.8 3.9-3.7 10.1-3.5 13.8 0.5 6 6.5 10.8 13.9 14.3 22 2.1 5-0.2 10.7-5.2 12.8-1.2 0.5-2.5 0.8-3.8 0.8z" fill="#FDC223" p-id="4496"></path><path d="M382.9 361.5c-42 0-76.1-34.2-76.1-76.1V88.5c0-42 34.2-76.1 76.1-76.1 21.1 0 41.4 8.9 55.9 24.5 3.7 4 3.4 10.1-0.6 13.8-3.9 3.7-10.1 3.4-13.8-0.5-10.7-11.6-25.8-18.3-41.5-18.3-31.2 0-56.6 25.4-56.6 56.6v196.9c0 31.2 25.4 56.6 56.6 56.6 10.7 0 21.2-3 30.2-8.8 4.5-2.9 10.6-1.6 13.5 3 2.9 4.6 1.5 10.6-3 13.5-12.2 7.7-26.3 11.8-40.7 11.8z" fill="#FDC223" p-id="4497"></path><path d="M868.9 257.8H656.2V61.7z" fill="#2D416C" p-id="4498"></path><path d="M302 442.9h219.9v41.7H302zM302 538.9h285.3v41.7H302zM302 625.3h219.9V667H302zM302 711.6h361.6v41.7H302zM302 787.3h361.6V829H302z" fill="#FFFFFF" p-id="4499"></path><path d="M423.6 349.7l-10.5-16.5c16.5-10.5 26.4-28.4 26.4-47.8v-73.3H459v73.3c0 26.1-13.2 50.1-35.4 64.3z" fill="#FDC223" p-id="4500"></path><path d="M386.4 267.7h-19.5V119c0-25.4 20.7-46.1 46.1-46.1 25.4 0 46.1 20.7 46.1 46.1v121.4h-19.5V119c0-14.6-11.9-26.5-26.5-26.5s-26.5 11.9-26.5 26.5v148.7z" fill="#FDC223" p-id="4501"></path><path d="M306.8 285.4c0 42 34.2 76.2 76.1 76.2 14.4 0 28.5-4.1 40.7-11.9 4.6-2.9 5.9-9 3-13.5-2.9-4.6-9-5.9-13.5-3-9 5.8-19.5 8.8-30.2 8.8-31.2 0-56.6-25.4-56.6-56.6V88.5c0-9.7 2.7-18.8 7.1-26.8h-21.5c-3.2 8.4-5.1 17.3-5.1 26.8v196.9z" fill="#FDC223" p-id="4502"></path><path d="M174.9 974.5h694v35.2h-694z" fill="#429BCF" p-id="4503"></path></svg>